<svg width="20" height="20" fill="none" xmlns="http://www.w3.org/2000/svg"><path d="M18.306 15.272c0 .3-.067.609-.209.909-.141.3-.325.583-.566.85-.409.45-.859.775-1.367.983-.5.208-1.042.317-1.625.317-.85 0-1.758-.2-2.717-.609a14.634 14.634 0 01-2.866-1.65 23.961 23.961 0 01-2.734-2.333 23.68 23.68 0 01-2.325-2.725c-.683-.95-1.233-1.9-1.633-2.842-.4-.95-.6-1.858-.6-2.725 0-.566.1-1.108.3-1.608.2-.508.517-.975.958-1.392.534-.525 1.117-.783 1.734-.783.233 0 .466.05.675.15.216.1.408.25.558.467l1.933 2.725c.15.208.259.4.334.583.075.175.116.35.116.508 0 .2-.058.4-.175.592a2.835 2.835 0 01-.466.592l-.634.658a.446.446 0 00-.133.333c0 .067.008.125.025.192.025.067.05.117.067.167.15.275.408.633.775 1.066.375.434.775.875 1.208 1.317.45.442.883.85 1.325 1.225.433.367.792.617 1.075.767.042.016.092.041.15.066a.575.575 0 00.208.034c.142 0 .25-.05.342-.142l.633-.625c.209-.208.409-.367.6-.467a1.11 1.11 0 01.592-.175c.158 0 .325.034.508.109.184.075.375.183.584.325l2.758 1.958c.217.15.367.325.458.533.084.209.134.417.134.65z" stroke="#F5F5F5" stroke-width="2" stroke-miterlimit="10"/></svg>