<svg width="155" height="51" fill="none" xmlns="http://www.w3.org/2000/svg"><path d="M41.438 17.566a3.499 3.499 0 003.498 3.218c.112.007.225.007.337 0a3.519 3.519 0 00-.33-7.018h-.338a3.52 3.52 0 00-3.167 3.836v-.037z" fill="#FFC078"/><path d="M.698 41.658a1.387 1.387 0 001.839-.589c.065-.129 6.738-12.93 20.149-14.445.905-.11 1.819-.142 2.73-.093h.244a9.03 9.03 0 011.185.18l.223.05c.311.074.618.168.92.28h.107l.783.316h-.05a4.095 4.095 0 011.91 2.047 5.123 5.123 0 01-.237 3.972c-1.717 4.648-7.327 8.958-15.013 11.558a1.364 1.364 0 00.568 2.65c.108-.006.214-.028.316-.064 12.93-4.425 18.403-12.413 17.139-18.016a6.224 6.224 0 00-.338-1.063l-.15-.33.294-.208a69.746 69.746 0 004.252-3.118l.295-.237.28.259c2.234 2.09 5.833 2.923 10.581 2.47a45.258 45.258 0 0010.056-2.334l.245-.086.194.18a3.513 3.513 0 10-1.15-3.025v.28l-.266.094c-2.492.826-7.298 2.22-11.543 2.22-3.663 0-6.098-1.042-7.233-3.096-4.181-7.579 3.412-18.95 3.735-19.395a1.372 1.372 0 00-.36-1.904 1.436 1.436 0 00-1.896.36c-.344.502-8.36 12.398-4.31 21.434l.144.31-.273.215a68.642 68.642 0 01-4.44 3.254l-.265.186-.251-.2c-2.04-1.617-5.028-2.25-8.7-1.825C7.603 25.625.433 39.274.146 39.855a1.365 1.365 0 00.553 1.803z" fill="#FFC078"/><path d="M87.548 15.475a24.989 24.989 0 01-1.372 3.11 85.054 85.054 0 01-4.799 8.348 86.92 86.92 0 01-5.588 7.729 88.72 88.72 0 01-2.256 2.686 22.986 22.986 0 017.765-1.113c1.257.108 2.873.467 3.549 1.645.147.237.222.511.215.79-.036.144-.144 0-.18-.108a2.745 2.745 0 00-1.896-1.142 15.088 15.088 0 00-4.403-.144 28.99 28.99 0 00-4.655.64c-.387.063-.77.147-1.15.251a11.88 11.88 0 01-3.505 2.758c-.502.252-1.436.64-1.932.396-.682-.36.18-1.258.539-1.58a12.525 12.525 0 014.583-2.077 36.83 36.83 0 002.291-2.873c1.86-2.615 3.592-5.337 5.258-8.088 1.832-3.089 3.721-6.393 5.338-9.554a11.11 11.11 0 011.142-1.717c.107-.18.897-1.22 1.113-.718a1.31 1.31 0 01-.057.761zM71.745 38.462c-1.214.359-3.255.933-4.045 2.155-.143.251-.143.323.144.323a2.98 2.98 0 00.999-.323 8.698 8.698 0 002.901-2.162v.007z" fill="#1C2532"/><path d="M67.724 41.776a1.164 1.164 0 01-.553-.122.784.784 0 01-.445-.61c-.08-.59.538-1.243.905-1.573a12.413 12.413 0 014.59-2.155 34.519 34.519 0 002.198-2.795c1.99-2.758 3.793-5.61 5.23-8.03 2.01-3.283 3.857-6.58 5.358-9.54.338-.63.735-1.226 1.185-1.781 0 0 .64-1.006 1.243-1.006a.538.538 0 01.474.33 1.53 1.53 0 01-.036 1.035.332.332 0 000 .065 24.978 24.978 0 01-1.38 3.16 82.8 82.8 0 01-4.805 8.383 84.93 84.93 0 01-5.631 7.758c-.475.603-.97 1.192-1.437 1.774 2.18-.629 4.449-.9 6.716-.804 1.954.172 3.24.79 3.843 1.838.191.313.281.676.259 1.042a.481.481 0 01-.36.352.547.547 0 01-.517-.36 2.405 2.405 0 00-1.652-.955 15.15 15.15 0 00-4.31-.136 29.293 29.293 0 00-4.597.64c-.402.071-.718.136-1.027.215a11.83 11.83 0 01-3.548 2.758 4.31 4.31 0 01-1.703.517zm2.586-2.464a5.639 5.639 0 00-1.99 1.15c.123-.045.243-.098.36-.158a10.884 10.884 0 001.63-.992zm1.703-1.12v.043a.4.4 0 01.064.136c.094-.093.18-.194.28-.287l-.344.108zm1.17-.805l-.33.381.488-.115a.36.36 0 01-.107-.1.365.365 0 01-.05-.166zm7.184-.804a21.248 21.248 0 00-5.029.718c1.085-.177 2.179-.3 3.276-.366a15.716 15.716 0 014.51.15l.49.13a5.984 5.984 0 00-2.285-.575 7.299 7.299 0 00-1.013-.057h.05zm6.888-21.514c-.166.16-.313.338-.438.532-.43.528-.81 1.096-1.135 1.695-1.501 2.967-3.369 6.285-5.38 9.582-1.487 2.428-3.276 5.301-5.28 8.11l-.165.237.647-.797a85.86 85.86 0 005.58-7.693 84.38 84.38 0 004.778-8.311c.515-.988.962-2.01 1.336-3.06v-.043c.024-.083.043-.167.057-.252zM95.67 31.83c-.145.212-.3.416-.468.61a23.989 23.989 0 01-3.002 3.04 12.297 12.297 0 01-3.793 2.4 1.924 1.924 0 01-1.904-.245 2.156 2.156 0 01-.675-1.544 6.213 6.213 0 011.437-3.47 10.774 10.774 0 013.512-2.974c.676-.359 1.933-.89 2.572-.143.64.747.108 1.76-.496 2.363-.331.315-.706.58-1.113.79a11.255 11.255 0 01-3.936 1.437c-.36.754-.898 1.86-.54 2.65.755.999 3.111-.467 3.83-1.005a22.917 22.917 0 003.44-3.039 8.015 8.015 0 011.214-1.257c.208-.115-.043.316-.079.388zm-7.73 2.004a7.53 7.53 0 003.592-1.896c.323-.323 1.573-1.681 1.257-2.256-.431-.718-1.897.36-2.335.719a10.552 10.552 0 00-2.514 3.433z" fill="#1C2532"/><path d="M87.6 38.393a2.04 2.04 0 01-1.342-.481 2.471 2.471 0 01-.805-1.796 6.55 6.55 0 011.509-3.728 11.142 11.142 0 013.591-3.074c1.76-.927 2.622-.539 3.039-.058.675.783.474 1.882-.525 2.874a5.14 5.14 0 01-1.156.818 11.96 11.96 0 01-3.865 1.487c-.323.719-.718 1.58-.452 2.155.41.517 2.155-.316 3.268-1.142a22.595 22.595 0 003.398-3.002l.258-.31c.296-.37.636-.703 1.013-.99a.488.488 0 01.539 0c.251.23.086.545-.05.797v.072a7.328 7.328 0 01-.496.639 24.377 24.377 0 01-3.046 3.089l-.072.057a12.572 12.572 0 01-3.85 2.414c-.307.11-.63.17-.955.18zm1.66-7.305a10.623 10.623 0 00-1.71 1.753 5.811 5.811 0 00-1.357 3.26 1.71 1.71 0 00.546 1.244 1.617 1.617 0 001.544.18l.273-.101a1.48 1.48 0 01-1.602-.431c-.466-1.006.101-2.213.489-3.01a.387.387 0 01.115-.151.33.33 0 01.043-.165 12.468 12.468 0 011.66-2.579zm3.082-1.279a3.642 3.642 0 00-1.624.877 9.387 9.387 0 00-2.032 2.535 6.465 6.465 0 002.6-1.544c.776-.783 1.293-1.602 1.192-1.817a.1.1 0 00-.079-.043l-.057-.008zm.883.194a4.548 4.548 0 01-1.343 2.155c.26-.151.5-.332.718-.539.273-.316.862-.998.625-1.616z" fill="#1C2532"/><path d="M103.437 29.14a.719.719 0 00-.431 0c-.295.08-.573.213-.819.395a18.104 18.104 0 00-3.225 2.974c-1.106 1.178-2.155 2.399-3.218 3.591-.431.539-.898 1.078-1.33 1.652a.51.51 0 01-.646.173c-.208-.108-.244-.36-.28-.532-.023-.75.062-1.5.252-2.227a17.181 17.181 0 011.609-4.374c.18-.373.451-.695.79-.934.244-.144.718-.323.998-.072.28.252-.072.826-.215 1.07-.216.439-.467.826-.647 1.258a27.029 27.029 0 00-1.106 2.722c-.251.646-.431 1.358-.61 2.004.61-.575 1.113-1.257 1.687-1.86.783-.898 1.538-1.789 2.32-2.651a16.902 16.902 0 013.348-3.117c.431-.245 1.394-.719 1.717-.108.057.18-.122.072-.194.036z" fill="#1C2532"/><path d="M94.015 38.341a.718.718 0 01-.395-.108.955.955 0 01-.46-.761 7.765 7.765 0 01.245-2.407c.336-1.561.88-3.071 1.616-4.489.208-.424.52-.79.905-1.063a1.25 1.25 0 011.48 0c.466.467.071 1.135-.115 1.436l-.295.54c-.13.244-.266.488-.373.718a27.61 27.61 0 00-1.1 2.7c-.057.151-.114.302-.165.453.201-.23.403-.467.618-.718l.805-.92a89.597 89.597 0 011.515-1.724 17.57 17.57 0 013.405-3.146 2.307 2.307 0 011.695-.431.91.91 0 01.561.474.527.527 0 01-.079.539.504.504 0 01-.582 0l.108-.259-.13.252h-.172a1.94 1.94 0 00-.718.337 16.915 16.915 0 00-3.003 2.744l-.165.173a126.483 126.483 0 00-3.211 3.591l-.438.539c-.295.352-.59.718-.87 1.092a.94.94 0 01-.682.438zm2.823-8.347c-.172.012-.34.063-.488.151a2.03 2.03 0 00-.632.776 17.242 17.242 0 00-1.588 4.31 7.606 7.606 0 00-.237 2.155c0 .05.043.2.079.222.036.022.187-.079.187-.079a4.38 4.38 0 01.28-.359.36.36 0 01-.165-.416l.086-.338c.158-.56.316-1.15.531-1.702a24.71 24.71 0 011.121-2.752c.118-.27.253-.535.402-.79l.245-.467s.05-.086.05-.093c.18-.295.251-.481.23-.553a.098.098 0 00-.051-.06.099.099 0 00-.079-.005h.03z" fill="#1C2532"/><path d="M126.07 14.897c0 .144-.18.323-.252.431a46.703 46.703 0 00-4.367 5.869c-2.507 3.85-4.935 7.772-7.413 11.637a49.772 49.772 0 013.081-1.437c.92-.472 1.882-.857 2.874-1.15h.143c-.13.105-.275.19-.431.252-2.047 1.013-4.137 2.011-6.163 3.118a369.512 369.512 0 01-2.579 3.907 68.903 68.903 0 01-5.588 7.636 24.167 24.167 0 01-3.455 3.24c-.898.646-2.938 2.083-3.757.646-.682-1.178.144-3.11.79-4.224a16.47 16.47 0 012.873-3.591 43.089 43.089 0 017.629-5.804c.718-.46 1.501-.891 2.255-1.322 1.214-1.968 2.428-3.936 3.685-5.905a157.15 157.15 0 012.723-4.223 66.936 66.936 0 01-4.403 4.619 23.908 23.908 0 01-6.731 4.726c-1.178.496-3.154 1.214-3.972-.251-.647-1.437-.036-3.01.502-4.375a28.634 28.634 0 014.648-6.975c1.329-1.688 2.873-3.153 3.656-5.193.216-.783-.467-.999-1.221-.999-.785.018-1.566.124-2.327.316a21.547 21.547 0 00-5.079 1.94 21.33 21.33 0 00-4.051 2.787 9.67 9.67 0 00-2.543 3.512c-.154.403-.331.797-.532 1.178-.18.288-.466.396-.61 0a2.079 2.079 0 010-.818c.147-.714.468-1.38.934-1.94a14.2 14.2 0 013.376-3.132 32.827 32.827 0 013.972-2.327 27.195 27.195 0 014.367-1.717 10.316 10.316 0 012.328-.43 2.044 2.044 0 011.939.681c.532.927-.61 2.931-1.185 3.901-1.609 2.758-3.793 5.186-5.545 7.901a12.07 12.07 0 00-1.976 4.224c-.143 1.114.323 1.86 1.76 1.616a11.22 11.22 0 004.181-1.853c1.29-.86 2.511-1.82 3.649-2.873a68.889 68.889 0 006.371-7.04c1.645-1.932 2.938-4.116 4.619-6.012a2.383 2.383 0 011.042-.826c.244-.079.819-.187.783.28zM111.179 34.91a45.302 45.302 0 00-8.16 5.941 22.094 22.094 0 00-2.974 3.405c-.647 1.07-1.753 3.11-1.322 4.18.431 1.07 2.22-.352 2.68-.718a24.165 24.165 0 003.333-3.275 69.417 69.417 0 005.516-7.98c.288-.518.64-1.057.927-1.553z" fill="#1C2532"/><path d="M99.235 50.038a1.59 1.59 0 01-.367-.044 1.48 1.48 0 01-1.012-.761c-.848-1.437.273-3.707.79-4.597a16.206 16.206 0 012.923-3.692 42.65 42.65 0 017.693-5.84c.719-.446 1.437-.87 2.155-1.279l.051-.093c1.185-1.911 2.37-3.829 3.591-5.747l.374-.596a30.67 30.67 0 01-1.48 1.437 24.16 24.16 0 01-6.824 4.841c-.927.395-3.398 1.437-4.439-.41-.718-1.594 0-3.383.474-4.69a29.023 29.023 0 014.719-7.111c.316-.41.654-.805.992-1.207a13.977 13.977 0 002.6-3.88.373.373 0 000-.287c-.036-.05-.216-.208-.848-.208a9.615 9.615 0 00-2.241.31 21.321 21.321 0 00-8.965 4.64 9.036 9.036 0 00-2.442 3.368c-.064.137-.115.266-.172.395a5.5 5.5 0 01-.395.84.718.718 0 01-.719.432.668.668 0 01-.553-.496 2.386 2.386 0 01-.057-.998 4.76 4.76 0 011.005-2.112 14.515 14.515 0 013.527-3.204 34.882 34.882 0 014.016-2.349 27.273 27.273 0 014.396-1.71 10.049 10.049 0 012.414-.445c.409 0 1.688-.093 2.269.862.582.956-.316 2.83-1.178 4.31a48.8 48.8 0 01-3.153 4.483c-.819 1.084-1.667 2.212-2.421 3.361a11.662 11.662 0 00-1.889 4.087 1.243 1.243 0 00.208 1.013 1.358 1.358 0 001.114.158 10.968 10.968 0 004.015-1.767 28.828 28.828 0 003.592-2.873 69.399 69.399 0 006.335-6.946c.776-.905 1.48-1.89 2.155-2.83.769-1.07 1.566-2.155 2.464-3.197a2.776 2.776 0 011.185-.934 1.16 1.16 0 011.042 0c.091.069.163.16.209.264.045.105.062.22.05.332a.977.977 0 01-.259.554l-.079.107a45.963 45.963 0 00-4.31 5.819c-1.537 2.37-3.039 4.74-4.54 7.104a640.033 640.033 0 01-2.155 3.412 75.97 75.97 0 011.897-.884l.165-.071c.895-.45 1.831-.816 2.794-1.092.302-.058.489 0 .582.186a.443.443 0 01-.072.468 1.546 1.546 0 01-.438.28l-.093.043-1.926.948c-1.379.675-2.794 1.372-4.173 2.155a352.24 352.24 0 01-2.536 3.821l-.395.596a64.911 64.911 0 01-5.215 7.076 25.753 25.753 0 01-3.491 3.304c-.998.683-2.025 1.343-2.96 1.343zm-.82-1.358l.087.18a.785.785 0 00.517.409c.834.172 2.155-.805 2.701-1.171a24.012 24.012 0 003.376-3.197 64.39 64.39 0 005.158-6.996l.395-.589c.855-1.286 1.717-2.579 2.579-3.9a.32.32 0 01.136-.122l.395-.216a.36.36 0 010-.445l2.873-4.533c1.502-2.37 3.003-4.748 4.533-7.104a46 46 0 014.396-5.912l.058-.093.057-.08a1.087 1.087 0 00-.223.065 2 2 0 00-.876.719c-.905 1.02-1.688 2.111-2.449 3.16a101.394 101.394 0 01-2.155 2.873l-1.66 1.882a.373.373 0 01.079.503c-.862 1.3-1.752 2.68-2.715 4.224a603.015 603.015 0 00-3.592 5.747l-.107.172a.322.322 0 01-.137.122l-.438.252a.369.369 0 01.043.43c-.287.51-.61 1.056-.934 1.56l-.524.825a60.384 60.384 0 01-5.028 7.184 24.14 24.14 0 01-3.376 3.34l-.115.093c-.819.647-1.782 1.279-2.478 1.092a.955.955 0 01-.575-.474zm11.666-12.671a41.905 41.905 0 00-6.809 5.114 21.635 21.635 0 00-2.924 3.319c-1.07 1.781-1.544 3.182-1.286 3.836.065.15.13.172.166.18.323.071.919-.245 1.831-.956l.115-.094a23.457 23.457 0 003.269-3.24 60.852 60.852 0 004.963-7.11l.525-.834.15-.215zm1.89-18.914a15.762 15.762 0 01-2.529 3.642c-.33.395-.661.79-.984 1.193a28.38 28.38 0 00-4.597 6.896c-.51 1.25-1.099 2.78-.51 4.065a1.253 1.253 0 001.005.647 1.47 1.47 0 01-.603-.338 1.861 1.861 0 01-.402-1.688 12.343 12.343 0 012.025-4.375c.762-1.17 1.624-2.305 2.443-3.404a46.067 46.067 0 003.067-4.432c.435-.697.798-1.436 1.085-2.206zm-14.324 4.483c-.354.357-.685.736-.991 1.135a3.972 3.972 0 00-.862 1.76c-.021.169-.021.34 0 .51.108-.202.201-.431.302-.669l.172-.409a8.979 8.979 0 011.38-2.327zm28.051-6.71h.366l-.366-.043v.043z" fill="#1C2532"/><path d="M125.187 33.405c-1.078 1.07-2.155 2.155-3.254 3.182a12.5 12.5 0 01-1.437 1.106c-.323.18-.718.216-.89-.172a2.453 2.453 0 01.136-1.58c.127-.335.283-.657.467-.963-.511.47-1.048.912-1.609 1.322a14.91 14.91 0 01-1.537 1.006c-.503.28-1.185.675-1.76.387-.575-.287-.604-1.285-.496-1.896.169-.758.471-1.48.891-2.133a9.394 9.394 0 013.189-3.075c1.178-.718 2.687-1.436 4.08-1.15a1.528 1.528 0 011.286.97.466.466 0 01-.215.604c-.252.079-.316 0-.424-.216-.575-1.178-1.976-.998-2.974-.531a8.31 8.31 0 00-2.873 2.507 12.686 12.686 0 00-1.897 3.29c-.251.682-.179 1.257.79.79a8.944 8.944 0 001.861-1.15 19.106 19.106 0 002.938-2.966c.108-.215.251-.395.359-.61.28-.468 1.106-1.006 1.573-.503.28.251 0 .646-.144.898-.251.359-.466.675-.718 1.034a38.391 38.391 0 00-2.219 3.591c.8-.46 1.526-1.04 2.155-1.716.826-.719 1.644-1.545 2.435-2.364.323-.359.718-.718 1.041-1.041 0 0 .719-.647.719-.539 0 .108-.317.625-1.473 1.918z" fill="#1C2532"/><path d="M120.086 38.2a.884.884 0 01-.28-.044.866.866 0 01-.517-.481 2.099 2.099 0 010-1.437l-.438.338a14.66 14.66 0 01-1.588 1.027c-.538.316-1.343.783-2.097.402-.754-.38-.905-1.127-.718-2.298a6.672 6.672 0 01.905-2.241 9.756 9.756 0 013.311-3.197c1.221-.718 2.794-1.436 4.346-1.2a1.851 1.851 0 011.58 1.243.823.823 0 01-.431 1.042.803.803 0 01-.517 0c.46.402.108.998-.05 1.257 0 0-.058.093-.058.108-.251.344-.459.66-.668 1.012a7.77 7.77 0 01-.718 1.035c-.266.316-.488.718-.718 1.106l.639-.589.151-.15a49.296 49.296 0 002.428-2.35 9.52 9.52 0 01.718-.718l.359-.352c.338-.33.805-.718 1.085-.646a.408.408 0 01.287.25c.13.346-.086.583-.991 1.553l-.668.718-.647.646c-.847.855-1.731 1.746-2.621 2.557l-.281.23a9.987 9.987 0 01-1.17.913 1.272 1.272 0 01-.633.265zm.223-3.592a.32.32 0 01.165.079.366.366 0 01.079.481 5.901 5.901 0 00-.431.912 1.977 1.977 0 00-.158 1.265c.036.086.065.093.079.1a.123.123 0 00.072 0 .369.369 0 01-.064-.424c.451-.913.965-1.793 1.537-2.636.222-.337.452-.668.668-1.013.215-.344.431-.682.718-1.048v-.058c.076-.109.132-.23.165-.36a.276.276 0 00-.251-.092 1.224 1.224 0 00-.718.524 1.964 1.964 0 01-.18.302c-.057.093-.115.18-.165.28-.517.582-.992 1.156-1.516 1.695v-.007zm-1.494-3.52a8.938 8.938 0 00-2.801 2.787 6.165 6.165 0 00-.812 1.99c-.144.804-.043 1.314.309 1.494.136.065.291.08.438.043a.718.718 0 01-.345-.165c-.187-.172-.359-.532-.079-1.286a12.923 12.923 0 011.947-3.39 11.95 11.95 0 011.343-1.466v-.007zm3.283-.79c-.453.02-.898.13-1.308.323a7.735 7.735 0 00-2.729 2.4 12.01 12.01 0 00-1.839 3.189c-.066.15-.1.31-.101.474 0 0 .151-.043.374-.151.639-.29 1.24-.66 1.788-1.1a19.094 19.094 0 002.874-2.916c.039-.1.089-.197.151-.287.059-.084.112-.173.158-.266a1.949 1.949 0 011.329-.905.995.995 0 01.574.108 1.406 1.406 0 01-.108-.194 1.221 1.221 0 00-1.163-.668v-.007zm1.408-.223c.164.15.3.327.402.525v-.044a.799.799 0 00-.402-.48z" fill="#1C2532"/><path d="M130.844 33.3c-.216 0-.575-.044-.826-.044-.381-.007-.763.008-1.142.043.144.4.181.831.108 1.25a4.322 4.322 0 01-2.759 3.11c-.679.289-1.421.4-2.155.324a1.015 1.015 0 01-.934-.926c-.013-.16.012-.32.072-.468a4.382 4.382 0 011.221-1.788 6.9 6.9 0 011.911-1.186 8.298 8.298 0 011.006-.395c-.539-.819-1.293-1.716-.898-2.823a2.05 2.05 0 011.25-1.185c.538-.215 1.472-.323 1.831.252.36.574-.251 1.293-.79 1.544a1.19 1.19 0 01-.431.108c0-.043.431-.36.467-.402.216-.173.539-.532.46-.855-.079-.324-.603-.288-.855-.216-.646.18-1.357.718-1.077 1.437.28.718 1.192 1.15 1.465 1.867a5.261 5.261 0 011.681.108c.144.058.646.244.395.244zm-3.333.28a6.292 6.292 0 00-3.398 2.24c-.251.324-.933 1.365-.251 1.646.682.28 1.537-.173 2.076-.532 1.077-.668 2.04-2.061 1.573-3.354z" fill="#1C2532"/><path d="M124.521 38.384a4.02 4.02 0 01-.503 0 1.315 1.315 0 01-.977-.553 1.586 1.586 0 01-.187-1.307 4.813 4.813 0 011.329-1.997 7.414 7.414 0 012.011-1.264l.568-.238c-.503-.718-1.063-1.659-.668-2.765a2.418 2.418 0 011.487-1.437c.761-.309 1.81-.316 2.262.41a1.115 1.115 0 01.13.912 2.062 2.062 0 01-1.078 1.164c-.194.1-.625.265-.855 0a.423.423 0 01-.107-.302c0-.208.165-.316.495-.56l.094-.072c.251-.209.366-.424.352-.496a1.857 1.857 0 00-.388.058 1.294 1.294 0 00-.819.581.422.422 0 000 .388c.162.274.371.517.618.719.287.249.53.545.718.876a5.203 5.203 0 011.544.13c.783.193.719.48.719.603a.462.462 0 01-.439.352h-1.494c.058.32.058.649 0 .97-.244 1.695-1.702 2.873-2.981 3.397-.579.253-1.2.4-1.831.431zm3.182-5.129a.33.33 0 01.158.194c.531 1.437-.496 3.032-1.731 3.771l-.266.173.23-.086a3.987 3.987 0 002.521-2.816 2.157 2.157 0 00-.093-1.078.305.305 0 010-.18.328.328 0 01-.094-.15 2.301 2.301 0 00-.653-.862 3.446 3.446 0 01-.791-.984 1.23 1.23 0 010-1.02 1.9 1.9 0 01.237-.345 1.562 1.562 0 00-.438.625c-.287.805.173 1.487.668 2.205l.187.288a.33.33 0 01.065.265zm-.46.79a5.745 5.745 0 00-2.83 1.969 1.763 1.763 0 00-.467 1.027 2.153 2.153 0 001.788-.445 2.872 2.872 0 001.509-2.55z" fill="#1C2532"/><path d="M128.693 37.136c1.616-3.046 3.19-6.12 4.827-9.21 1.573-2.937 3.19-5.832 4.799-8.734a3.58 3.58 0 01.718-.927c.187-.15.575-.466.79-.222.216.244 0 .538-.108.718-1.645 3.053-3.218 6.127-4.834 9.166-1.034 1.896-2.04 3.793-3.074 5.617.215-.215.459-.46.682-.718a15.655 15.655 0 013.757-2.744c.718-.36 1.789-.719 2.04.43a3.3 3.3 0 01-.503 2.005 37.785 37.785 0 01-2.435 3.793c-.072.107-.575.826-.395.898 1.293-.503 2.399-1.796 3.441-2.759 1.041-.962 1.788-1.932 2.787-2.83.043 0 .251-.18.294-.144.043.036-.079.216-.107.252a20.506 20.506 0 01-1.473 1.645 79.459 79.459 0 01-3.003 3.045c-.359.36-2.435 2.364-2.758 1.006a3.345 3.345 0 01.395-2.011 26.105 26.105 0 012.32-3.937c.177-.254.322-.529.431-.819.072-.359-.244-.323-.639-.215a7.503 7.503 0 00-2.615 1.645 14.807 14.807 0 00-3.936 4.583c-.176.353-.42.668-.718.926-.18.151-.575.467-.791.252-.215-.216.036-.532.108-.711z" fill="#1C2532"/><path d="M128.75 38.284a.62.62 0 01-.431-.18c-.323-.33-.108-.804 0-1.027v-.129c.956-1.81 1.904-3.635 2.873-5.467.642-1.24 1.286-2.483 1.933-3.728a577.172 577.172 0 014.676-8.519l.129-.223c.205-.386.475-.733.798-1.027.581-.474 1.02-.532 1.314-.18.295.353.101.776 0 1.006l-.043.086c-.833 1.58-1.638 3.132-2.449 4.677-.812 1.544-1.574 3.024-2.364 4.525-.352.64-.718 1.271-1.034 1.904-.28.517-.56 1.041-.848 1.558a17.411 17.411 0 012.73-1.817 2.151 2.151 0 011.896-.287 1.273 1.273 0 01.719.97c.07.79-.119 1.582-.539 2.255a21.884 21.884 0 01-1.717 2.737c-.201.294-.402.581-.596.876a15.902 15.902 0 001.666-1.48c.223-.222.446-.445.668-.646l1.006-1.042c.56-.596 1.142-1.214 1.789-1.788a.574.574 0 01.107-.072c.187-.115.446-.287.719-.072.072.072.316.373-.094.79-.451.572-.93 1.121-1.436 1.645-.934.999-1.81 1.89-3.01 3.046-.675.675-1.918 1.788-2.758 1.544a.892.892 0 01-.625-.718 3.59 3.59 0 01.423-2.256 24.44 24.44 0 012.155-3.677l.202-.31c0-.043.071-.121.122-.193l.179-.302h-.1a6.804 6.804 0 00-2.32 1.437l-.159.129a14.38 14.38 0 00-3.843 4.46c-.193.4-.467.755-.804 1.042a1.523 1.523 0 01-.934.453zm8.685-8.21l.064.05a.595.595 0 01.158.582 2.53 2.53 0 01-.359.718l-.337.524a24.092 24.092 0 00-2.091 3.592 2.921 2.921 0 00-.366 1.774c0 .057.043.158.093.172a.318.318 0 00.144 0 .515.515 0 01-.172-.23c-.065-.208 0-.466.466-1.156.252-.388.51-.718.762-1.12a22.837 22.837 0 001.659-2.651 2.99 2.99 0 00.467-1.789c-.072-.33-.223-.402-.273-.424a.501.501 0 00-.215-.043zm-8.405 7.183l-.043.093v.043l.165-.13a2.55 2.55 0 00.618-.804 11.59 11.59 0 011.875-2.672.345.345 0 01-.129-.452c.718-1.214 1.364-2.464 2.047-3.714l1.027-1.904a387.4 387.4 0 002.363-4.518 726.043 726.043 0 012.407-4.619l.036-.086.043-.1-.173.186a3.175 3.175 0 00-.625.826l-.129.23a583.716 583.716 0 00-4.669 8.505l-1.932 3.714c-.977 1.81-1.918 3.62-2.881 5.437v-.035z" fill="#1C2532"/><path d="M145.991 31.72a3.59 3.59 0 01-.467.575 37.4 37.4 0 01-4.476 4.188 16.97 16.97 0 01-1.644 1.257.828.828 0 01-.898.065.87.87 0 01-.281-.855c.228-.817.564-1.6.999-2.327a93.297 93.297 0 012.435-4.188c.204-.391.551-.687.97-.826.287-.108.819-.072.718.359a15.68 15.68 0 01-1.501 2.65c-.898 1.502-1.861 2.931-2.651 4.476a13.053 13.053 0 002.83-1.94 67.13 67.13 0 002.831-2.571c.315-.33.648-.642.998-.934.172-.137.28-.18.137.072zm-2.22-5.954c.251-.467.718-.862 1.113-.826.395.036.496.395.245.862a1.397 1.397 0 01-1.107.819c-.359-.022-.445-.374-.251-.855z" fill="#1C2532"/><path d="M138.843 38.278a.914.914 0 01-.561-.18 1.261 1.261 0 01-.423-1.242c.172-.69.443-1.35.804-1.962l.23-.445a131.873 131.873 0 012.449-4.224 2.027 2.027 0 011.193-.984 1.012 1.012 0 01.984.137.662.662 0 01.187.675 9.096 9.096 0 01-1.063 1.968c-.166.259-.331.517-.482.776-.287.481-.581.955-.876 1.437-.381.617-.769 1.242-1.142 1.889a16.32 16.32 0 001.638-1.257c.869-.719 1.788-1.573 2.808-2.557l.065-.065c.304-.313.625-.608.963-.884.114-.093.409-.33.675-.1.266.23.186.366 0 .646a4.173 4.173 0 01-.517.632 38.331 38.331 0 01-4.504 4.217l-.345.273c-.423.363-.87.7-1.336 1.005-.224.146-.481.23-.747.245zm4.087-8.354a.507.507 0 00-.172 0c-.334.113-.611.35-.776.66-.862 1.394-1.66 2.816-2.428 4.181-.065.137-.151.288-.23.446a6.643 6.643 0 00-.718 1.767.503.503 0 00.158.51c.064.043.194 0 .38-.065a.385.385 0 01-.269-.202.391.391 0 01-.004-.337c.546-1.063 1.186-2.09 1.796-3.081.295-.467.582-.941.862-1.437.158-.266.331-.532.503-.797.372-.53.688-1.099.941-1.696l-.043.05zM144.022 27a.776.776 0 01-.625-.366 1.093 1.093 0 010-1.02 1.763 1.763 0 011.472-1.02.719.719 0 01.611.352 1.07 1.07 0 01-.072 1.056 1.72 1.72 0 01-1.386.998zm.086-1.063a.543.543 0 00-.065.323 1.102 1.102 0 00.719-.61.599.599 0 00.093-.352 1.264 1.264 0 00-.747.639z" fill="#1C2532"/><path d="M154.161 32.295a17.81 17.81 0 01-1.113 1.214c-1.035 1.113-2.112 2.22-3.218 3.225-.467.395-2.256 2.112-2.435.646a3.666 3.666 0 01.538-2.155 47.192 47.192 0 012.507-4.08c.963-1.609-.079-1.07-1.113-.466-.677.417-1.312.898-1.897 1.436a31.598 31.598 0 00-3.009 3.11c-.395.503-.927 1.114-1.394 1.724-.108.144-.718 1.035-.934.891-.215-.143 0-.46.072-.567.397-.983.878-1.93 1.437-2.83.718-1.437 1.573-2.83 2.435-4.224.244-.431.998-.36 1.322 0 .179.215 0 .467-.144.646-.647.963-1.286 2.005-1.932 2.967.287-.323.61-.64.89-.927a15.412 15.412 0 013.657-2.974c.431-.215 1.357-.718 1.896-.43.539.287.467 1.077.287 1.573a18.265 18.265 0 01-2.363 3.907c-.431.61-.826 1.214-1.257 1.825-.072.108-.46.718-.352.718.352.108 1.968-1.472 2.291-1.76 1.071-.998 2.155-2.155 3.183-3.218.215-.251.467-.467.718-.718.251-.252.395-.431.503-.36.107.073-.539.762-.575.827z" fill="#1C2532"/><path d="M147.888 38.337a.83.83 0 01-.301-.057.92.92 0 01-.553-.855 3.975 3.975 0 01.574-2.328 30.343 30.343 0 011.796-2.995c.244-.373.488-.718.718-1.113l.216-.388a8.25 8.25 0 00-.819.438 12.46 12.46 0 00-1.846 1.394 30.09 30.09 0 00-2.967 3.081l-.574.718c-.266.324-.554.669-.812 1.013-.51.719-.97 1.279-1.437.977-.388-.194-.179-.718-.093-.962.369-.956.819-1.879 1.343-2.759l.093-.172a66.83 66.83 0 012.45-4.238.967.967 0 01.718-.467 1.437 1.437 0 011.15.366.819.819 0 01-.044 1.027.959.959 0 00-.057.087l-.043.064a10.42 10.42 0 012.155-1.537l.129-.072c.546-.28 1.473-.718 2.155-.345a1.614 1.614 0 01.445 2.018 15.916 15.916 0 01-2.068 3.514l-.338.48c-.201.281-.395.561-.589.848l-.158.238.632-.575.237-.223a41.98 41.98 0 001.961-1.968c.41-.417.812-.84 1.214-1.236a5.57 5.57 0 01.467-.48l.208-.202c.288-.287.633-.632.977-.402.081.057.14.14.166.237.079.352-.482.984-.597 1.106-.237.287-.495.56-.718.826l-.366.395a65.95 65.95 0 01-3.247 3.254l-.151.13c-.661.56-1.408 1.163-2.026 1.163zm3.075-8.512l.086.08c.309.308.108.81-.287 1.436-.245.388-.489.761-.719 1.135-.642.94-1.23 1.916-1.76 2.923a3.776 3.776 0 00-.517 1.66c.072-.13.165-.288.302-.489.237-.337.452-.66.668-.984.215-.323.388-.567.589-.855l.345-.481a14.898 14.898 0 001.975-3.34c.115-.316.216-.92-.129-1.12a.72.72 0 00-.56.035h.007zm-4.31.503h-.079a.258.258 0 00-.208.108c-.999 1.623-1.775 2.952-2.428 4.209l-.101.187c-.323.56-.646 1.142-.919 1.738.237-.309.466-.582.718-.848.251-.265.402-.48.567-.718.166-.237.561-.632.841-.948a.389.389 0 010-.46l.941-1.436c.33-.518.661-1.028.991-1.523l.05-.08c.03-.045.056-.093.079-.143a.716.716 0 00-.495-.086h.043z" fill="#1C2532"/></svg>