<svg width="19" height="22" fill="none" xmlns="http://www.w3.org/2000/svg"><circle cx="9.504" cy="4.433" r="3.433" stroke="#6B6D80" stroke-width="2"/><path d="M18 16.473c0 .75-.206 1.331-.552 1.802-.355.482-.898.902-1.649 1.248-1.523.701-3.726 1.017-6.299 1.017-2.573 0-4.776-.316-6.3-1.017-.75-.346-1.293-.766-1.648-1.248-.346-.47-.552-1.052-.552-1.802s.206-1.331.552-1.802c.355-.482.898-.902 1.649-1.248 1.523-.702 3.726-1.017 6.299-1.017 2.572 0 4.776.315 6.3 1.017.75.346 1.293.766 1.648 1.248.346.47.552 1.052.552 1.802z" stroke="#6B6D80" stroke-width="2"/></svg>